<svg width="24" height="24" viewBox="0 0 24 24" fill="none" xmlns="http://www.w3.org/2000/svg">
<g filter="url(#filter0_bii_103_297)">
<path d="M17 21H7C5.343 21 4 19.657 4 18H20C20 19.657 18.657 21 17 21Z" fill="#E25D5D"/>
<path opacity="0.35" d="M20 15H4V18H20V15Z" fill="#E25D5D"/>
<path d="M12 9C13.6569 9 15 7.65685 15 6C15 4.34315 13.6569 3 12 3C10.3431 3 9 4.34315 9 6C9 7.65685 10.3431 9 12 9Z" fill="#E25D5D"/>
<path opacity="0.35" d="M16 2C14.402 2 13.311 2.756 12.712 3.326C13.318 3.665 13.77 4.241 13.931 4.936C14.173 4.656 14.86 4 16 4C16.553 4 17 3.552 17 3C17 2.448 16.553 2 16 2Z" fill="#E25D5D"/>
<path d="M17.5 12C16.678 12 15.956 11.598 15.5 10.986C15.044 11.598 14.322 12 13.5 12C12.935 12 12.419 11.805 12 11.489C11.581 11.805 11.065 12 10.5 12C9.678 12 8.956 11.598 8.5 10.986C8.044 11.598 7.322 12 6.5 12C5.119 12 4 11.381 4 10V15H20V10C20 11.381 18.881 12 17.5 12Z" fill="#E25D5D"/>
<path opacity="0.35" d="M17 7H7C5.343 7 4 8.343 4 10V15H20V10C20 8.343 18.657 7 17 7Z" fill="#E25D5D"/>
</g>
<defs>
<filter id="filter0_bii_103_297" x="-12" y="-12" width="48" height="48" filterUnits="userSpaceOnUse" color-interpolation-filters="sRGB">
<feFlood flood-opacity="0" result="BackgroundImageFix"/>
<feGaussianBlur in="BackgroundImageFix" stdDeviation="6"/>
<feComposite in2="SourceAlpha" operator="in" result="effect1_backgroundBlur_103_297"/>
<feBlend mode="normal" in="SourceGraphic" in2="effect1_backgroundBlur_103_297" result="shape"/>
<feColorMatrix in="SourceAlpha" type="matrix" values="0 0 0 0 0 0 0 0 0 0 0 0 0 0 0 0 0 0 127 0" result="hardAlpha"/>
<feOffset dx="-1.24988" dy="1.24988"/>
<feGaussianBlur stdDeviation="0.624942"/>
<feComposite in2="hardAlpha" operator="arithmetic" k2="-1" k3="1"/>
<feColorMatrix type="matrix" values="0 0 0 0 1 0 0 0 0 1 0 0 0 0 1 0 0 0 0.1 0"/>
<feBlend mode="normal" in2="shape" result="effect2_innerShadow_103_297"/>
<feColorMatrix in="SourceAlpha" type="matrix" values="0 0 0 0 0 0 0 0 0 0 0 0 0 0 0 0 0 0 127 0" result="hardAlpha"/>
<feOffset dx="1.24988" dy="-1.24988"/>
<feGaussianBlur stdDeviation="0.624942"/>
<feComposite in2="hardAlpha" operator="arithmetic" k2="-1" k3="1"/>
<feColorMatrix type="matrix" values="0 0 0 0 0.76 0 0 0 0 0.76 0 0 0 0 0.76 0 0 0 0.096 0"/>
<feBlend mode="normal" in2="effect2_innerShadow_103_297" result="effect3_innerShadow_103_297"/>
</filter>
</defs>
</svg>
