<svg width="24" height="24" viewBox="0 0 24 24" fill="none" xmlns="http://www.w3.org/2000/svg">
<g filter="url(#filter0_bii_103_306)">
<path opacity="0.35" d="M14.469 22H9.53095C7.51395 22 5.81195 20.498 5.56195 18.496L4.28095 7.248C4.13195 6.054 5.06295 5 6.26595 5H17.735C18.938 5 19.869 6.054 19.72 7.248L18.439 18.496C18.188 20.498 16.486 22 14.469 22Z" fill="#E25D5D"/>
<path d="M16.233 10.841C14.855 11.766 13.093 11.838 11.516 11.321C10.722 11.061 9.861 10.95 8.965 11.022C7.411 11.147 5.993 11.853 4.927 12.913L5.563 18.496C5.812 20.498 7.514 22 9.531 22H14.469C16.486 22 18.188 20.498 18.438 18.496L19.401 10.041C18.225 9.95 17.124 10.242 16.233 10.841ZM9 20C8.448 20 8 19.552 8 19C8 18.448 8.448 18 9 18C9.552 18 10 18.448 10 19C10 19.552 9.552 20 9 20ZM9 15C8.448 15 8 14.552 8 14C8 13.448 8.448 13 9 13C9.552 13 10 13.448 10 14C10 14.552 9.552 15 9 15ZM12.5 18C11.672 18 11 17.328 11 16.5C11 15.672 11.672 15 12.5 15C13.328 15 14 15.672 14 16.5C14 17.328 13.328 18 12.5 18Z" fill="#E25D5D"/>
<path d="M12 9C12.5523 9 13 8.55228 13 8C13 7.44772 12.5523 7 12 7C11.4477 7 11 7.44772 11 8C11 8.55228 11.4477 9 12 9Z" fill="#E25D5D"/>
<path d="M12 3C12.5523 3 13 2.55228 13 2C13 1.44772 12.5523 1 12 1C11.4477 1 11 1.44772 11 2C11 2.55228 11.4477 3 12 3Z" fill="#E25D5D"/>
<path d="M15.5 6C16.3284 6 17 5.32843 17 4.5C17 3.67157 16.3284 3 15.5 3C14.6716 3 14 3.67157 14 4.5C14 5.32843 14.6716 6 15.5 6Z" fill="#E25D5D"/>
</g>
<defs>
<filter id="filter0_bii_103_306" x="-12" y="-12" width="48" height="48" filterUnits="userSpaceOnUse" color-interpolation-filters="sRGB">
<feFlood flood-opacity="0" result="BackgroundImageFix"/>
<feGaussianBlur in="BackgroundImageFix" stdDeviation="6"/>
<feComposite in2="SourceAlpha" operator="in" result="effect1_backgroundBlur_103_306"/>
<feBlend mode="normal" in="SourceGraphic" in2="effect1_backgroundBlur_103_306" result="shape"/>
<feColorMatrix in="SourceAlpha" type="matrix" values="0 0 0 0 0 0 0 0 0 0 0 0 0 0 0 0 0 0 127 0" result="hardAlpha"/>
<feOffset dx="-1.24988" dy="1.24988"/>
<feGaussianBlur stdDeviation="0.624942"/>
<feComposite in2="hardAlpha" operator="arithmetic" k2="-1" k3="1"/>
<feColorMatrix type="matrix" values="0 0 0 0 1 0 0 0 0 1 0 0 0 0 1 0 0 0 0.1 0"/>
<feBlend mode="normal" in2="shape" result="effect2_innerShadow_103_306"/>
<feColorMatrix in="SourceAlpha" type="matrix" values="0 0 0 0 0 0 0 0 0 0 0 0 0 0 0 0 0 0 127 0" result="hardAlpha"/>
<feOffset dx="1.24988" dy="-1.24988"/>
<feGaussianBlur stdDeviation="0.624942"/>
<feComposite in2="hardAlpha" operator="arithmetic" k2="-1" k3="1"/>
<feColorMatrix type="matrix" values="0 0 0 0 0.76 0 0 0 0 0.76 0 0 0 0 0.76 0 0 0 0.096 0"/>
<feBlend mode="normal" in2="effect2_innerShadow_103_306" result="effect3_innerShadow_103_306"/>
</filter>
</defs>
</svg>
