<svg width="148" height="148" viewBox="0 0 148 148" fill="none" xmlns="http://www.w3.org/2000/svg">
<path d="M22.6154 37C25.7604 37 28.3077 39.5473 28.3077 42.6923C28.3077 45.8373 25.7604 48.3846 22.6154 48.3846C19.4704 48.3846 16.9231 45.8373 16.9231 42.6923C16.9231 39.5473 19.4704 37 22.6154 37Z" fill="#E25D5D"/>
<path d="M133.462 45.9231C138.177 45.9231 142 42.1003 142 37.3847C142 32.669 138.177 28.8462 133.462 28.8462C128.746 28.8462 124.923 32.669 124.923 37.3847C124.923 42.1003 128.746 45.9231 133.462 45.9231Z" fill="#E25D5D"/>
<path d="M75.5385 45.0769C80.2541 45.0769 84.0769 41.2541 84.0769 36.5385C84.0769 31.8228 80.2541 28 75.5385 28C70.8228 28 67 31.8228 67 36.5385C67 41.2541 70.8228 45.0769 75.5385 45.0769Z" fill="#E04141"/>
<path d="M125.231 93.9231H133.769C133.769 97.0652 132.494 99.9114 130.433 101.972C128.373 104.033 125.527 105.308 122.385 105.308H25.6153C19.3282 105.308 14.2307 100.21 14.2307 93.9231H22.7692H125.231Z" fill="#F87373"/>
<path d="M74.0001 42.6923C45.7064 42.6923 22.7693 65.6295 22.7693 93.9231H125.231C125.231 65.6295 102.294 42.6923 74.0001 42.6923Z" fill="#FFEAE2"/>
<path d="M142 65.8462C143.571 65.8462 144.846 67.1213 144.846 68.6923C144.846 70.2634 143.571 71.5385 142 71.5385C140.429 71.5385 139.154 70.2634 139.154 68.6923C139.154 67.1213 140.429 65.8462 142 65.8462Z" fill="#E25D5D"/>
<path d="M107.846 26C109.417 26 110.692 27.2751 110.692 28.8462C110.692 30.4172 109.417 31.6923 107.846 31.6923C106.275 31.6923 105 30.4172 105 28.8462C105 27.2751 106.275 26 107.846 26Z" fill="#E25D5D"/>
<path d="M10.8462 63.0769C12.4172 63.0769 13.6923 64.352 13.6923 65.9231C13.6923 67.4941 12.4172 68.7692 10.8462 68.7692C9.27508 68.7692 8 67.4941 8 65.9231C8 64.352 9.27508 63.0769 10.8462 63.0769Z" fill="#E25D5D"/>
<path d="M73.9615 45.9231C68.4687 45.9231 64 41.4543 64 35.9615C64 30.4687 68.4687 26 73.9615 26C79.4543 26 83.9231 30.4687 83.9231 35.9615C83.9231 41.4543 79.4543 45.9231 73.9615 45.9231ZM73.9615 31.6923C71.6075 31.6923 69.6923 33.6075 69.6923 35.9615C69.6923 38.3156 71.6075 40.2308 73.9615 40.2308C76.3156 40.2308 78.2308 38.3156 78.2308 35.9615C78.2308 33.6075 76.3156 31.6923 73.9615 31.6923Z" fill="#F87373"/>
</svg>
